<?xml version="1.0" standalone="no"?><!DOCTYPE svg PUBLIC "-//W3C//DTD SVG 1.1//EN" "http://www.w3.org/Graphics/SVG/1.1/DTD/svg11.dtd"><svg t="1556179788898" class="icon" style="" viewBox="0 0 1551 1024" version="1.1" xmlns="http://www.w3.org/2000/svg" p-id="2849" xmlns:xlink="http://www.w3.org/1999/xlink" width="424.1015625" height="280"><defs><style type="text/css"></style></defs><path d="M17.63157 511.716406c0 282.232414 228.803368 511.035782 511.035782 511.035782s511.035782-228.803368 511.035781-511.035782-228.803368-511.035782-511.035781-511.035781S17.63157 229.483992 17.63157 511.716406z m0 0" fill="#FFFFFF" p-id="2850"></path><path d="M64.140931 511.716406C64.140931 768.311953 272.185243 976.356265 528.780789 976.356265c256.595547 0 464.639858-208.044312 464.639858-464.639859 0-256.595547-208.044312-464.639858-464.639858-464.639858-256.595547 0-464.639858 208.044312-464.639858 464.639858z m0 0" fill="#E2E3E5" p-id="2851"></path><path d="M528.780789 976.356265c126.369336 0 241.168051-50.59311 324.884901-132.49496-7.14656-27.451867-15.20062-50.479672-24.275618-61.936856-36.299989-45.374986-201.124626-67.495292-201.124626-67.495292l-99.484657 26.771242-99.257782-26.657805s-163.917137 21.553118-200.217126 66.928105c-9.188435 11.570621-17.46937 35.052177-24.729368 63.071231C288.293363 926.103467 402.638328 976.356265 528.780789 976.356265z m0 0" fill="#D0D4D7" p-id="2852"></path><path d="M318.013979 460.896422c-2.495624-26.090617 11.570621-49.345297 31.76249-52.181234s38.568738 16.10812 41.404675 42.312174c2.495624 26.090617-11.570621 49.345297-31.762491 52.181234-20.305306 2.835937-38.795613-16.221558-41.404674-42.312174m132.154647 155.182452v134.990584H606.485453v-134.990584H450.168626zM697.235425 503.208596c-20.191869-2.268749-33.804365-25.183117-30.287803-51.387171 3.403124-26.090617 22.460618-45.601861 42.53905-43.333112 20.191869 2.268749 33.804365 25.183117 30.287803 51.387172-3.516561 26.204055-22.460618 45.488424-42.53905 43.333111" fill="#FFD9AC" p-id="2853"></path><path d="M528.780789 241.054614S362.594902 248.087737 362.594902 337.02271v180.36557c0 34.938739 56.491858 134.536834 107.198405 138.73402 25.52343 2.041874 58.760607 4.764374 58.760607 4.764373s33.464052-2.835937 58.760607-4.764373c50.706547-4.310624 106.631217-103.795281 106.631218-138.73402V341.673646c0.45375-88.481223-165.16495-100.619032-165.16495-100.619032" fill="#FEE1B9" p-id="2854"></path><path d="M630.647633 265.557106c-46.622798-20.645619-101.866844-24.61593-101.866844-24.61593h-0.226875c-7.259998 0.340312-165.845574 9.074997-165.845574 95.968096v180.36557c0 34.938739 56.491858 134.536834 107.198405 138.73402 25.52343 2.041874 58.760607 4.764374 58.760607 4.764374s33.464052-2.835937 58.760607-4.764374c50.706547-4.310624 107.198405-103.795281 107.198405-138.73402V341.673646c-0.226875-37.320926-29.834053-61.142794-63.978731-76.11654" fill="#FEE1B9" p-id="2855"></path><path d="M427.481133 710.231971l87.346848 265.897419c4.650936 0.226875 9.301872 0.226875 13.952808 0.226875 4.310624 0 8.734685-0.113437 13.045309-0.226875l87.346848-265.897419-100.845907 20.645618-100.845906-20.645618z m0 0" fill="#D0D4D7" p-id="2856"></path><path d="M540.351411 788.844134l22.914368-22.914368-34.598427-34.711864-34.258115 34.711864 22.914368 22.914368-28.472804 134.423397 39.816551 39.81655 39.81655-39.81655-28.132491-134.423397z m0 0" fill="#436B85" p-id="2857"></path><path d="M528.780789 730.991027l81.4481-41.064363 41.971863 24.729368-68.289355 97.55622-55.130608-81.221225z m0 0" fill="#FFFFFF" p-id="2858"></path><path d="M529.007664 730.991027L447.673001 689.813227l-41.971862 24.729367 82.469038 97.556221 40.837487-81.107788z m0 0" fill="#FFFFFF" p-id="2859"></path><path d="M702.226674 443.880802h-15.881245l-21.212806-147.582142s48.210923-18.944057 58.193419 39.249363c9.869059 57.853107-21.099369 108.332779-21.099368 108.332779m-355.513017 0h15.881245l21.212806-147.582142s-48.210923-18.944057-58.193419 39.249363c-9.869059 57.853107 21.099369 108.332779 21.099368 108.332779" fill="#61402F" p-id="2860"></path><path d="M365.430839 311.04553s67.495292 52.521546 161.081201 52.521547 182.067132-28.926554 222.337432-107.765593c-2.268749 0.567187-71.805916-11.910934-158.812451-78.271851-109.580592-83.830287-315.015841 40.383738-224.606182 133.515897" fill="#61402F" p-id="2861"></path></svg>