<?xml version="1.0" encoding="utf-8"?>
<!-- Generator: Adobe Illustrator 24.0.0, SVG Export Plug-In . SVG Version: 6.00 Build 0)  -->
<svg version="1.1" id="cortex_logo" xmlns="http://www.w3.org/2000/svg" xmlns:xlink="http://www.w3.org/1999/xlink" x="0px" y="0px"
	 viewBox="0 0 34 34" style="enable-background:new 0 0 34 34;" xml:space="preserve">
<style type="text/css">
	.st0{fill:#EEEEEE;}
	.st1{opacity:0.96;fill:url(#XMLID_2_);}
	.st2{fill:url(#XMLID_3_);}
	.st3{opacity:0.96;fill:url(#XMLID_4_);}
</style>
<g id="XMLID_5_">
    <g id="XMLID_15_">
        <path id="XMLID_20_" class="st0" d="m7.74,28.665c-2.07,0 -4.01,-0.8 -5.47,-2.27c-1.46,-1.46 -2.27,-3.4 -2.27,-5.47c0,-2.07 0.8,-4.01 2.27,-5.47c1.35,-1.35 3.1,-2.14 4.99,-2.25c0.35,-1.01 0.84,-1.96 1.45,-2.84c0.7,-1.01 1.56,-1.9 2.53,-2.65c0.99,-0.76 2.09,-1.35 3.26,-1.75c1.21,-0.42 2.49,-0.63 3.78,-0.63c3.03,0 5.91,1.16 8.09,3.26c1.97,1.9 3.2,4.39 3.5,7.08c0,0 0,0 0.01,0c1.06,0.45 2,1.17 2.71,2.09c0.92,1.19 1.41,2.62 1.41,4.13c0,1.81 -0.7,3.5 -1.98,4.78c-1.28,1.28 -2.97,1.98 -4.78,1.98l-19.5,0l0,0.01z"/>
        <g id="XMLID_16_">
            <linearGradient id="XMLID_2_" gradientUnits="userSpaceOnUse" gradientTransform="translate(0 -1) translate(-1 0) translate(0 2) translate(0.999998 0) translate(-137 0) translate(0 -0.505) translate(115.08 0) translate(-52 0)" x1="97.4699" x2="100.581" y1="22.7265" y2="28.1151">
                <stop offset="0" stop-color="#48C6F8"/>
                <stop offset="1" stop-color="#59A4FF"/>
            </linearGradient>
            <path id="XMLID_19_" class="st1" d="m32.77,21.905c0,3.05 -2.47,5.52 -5.52,5.52l-12.1,0c5.65,-5.35 13.56,-10.85 13.56,-10.85c1.17,0.32 2.19,1.02 2.91,1.95c0.72,0.94 1.15,2.11 1.15,3.38z"/>
            <linearGradient id="XMLID_3_" gradientUnits="userSpaceOnUse" gradientTransform="translate(0 -1) translate(-1 0) translate(0 2) translate(0.999998 0) translate(-137 0) translate(0 -0.505) translate(115.08 0) translate(-52 0)" x1="98.1729" x2="86.5878" y1="8.505" y2="23.2197">
                <stop offset="0" stop-color="#0CB4FF"/>
                <stop offset="1" stop-color="#5979FF"/>
            </linearGradient>
            <path id="XMLID_18_" class="st2" d="m28.71,16.575c0,0 -0.01,0.42 -0.14,1.14c-1.02,5.63 -5.95,9.71 -11.67,9.71l-5.25,0c5.32,-9.96 -3.48,-12.96 -3.48,-12.96c1.14,-4.52 5.24,-7.91 10.11,-7.91c5.62,0.01 10.21,4.46 10.43,10.02z"/>
            <linearGradient id="XMLID_4_" gradientUnits="userSpaceOnUse" gradientTransform="translate(0 -1) translate(-1 0) translate(0 2) translate(0.999998 0) translate(-137 0) translate(0 -0.505) translate(115.08 0) translate(-52 0)" x1="81.22" x2="81.22" y1="14.8933" y2="26.2177">
                <stop offset="0" stop-color="#48C6F8"/>
                <stop offset="1" stop-color="#59A4FF"/>
            </linearGradient>
            <path id="XMLID_17_" class="st3" d="m11.65,27.435l-3.91,0c-1.79,0 -3.42,-0.73 -4.6,-1.9c-1.18,-1.18 -1.9,-2.8 -1.9,-4.6c0,-3.59 2.91,-6.5 6.5,-6.5l0,0c0.31,0 0.62,0.07 0.91,0.2c1.76,0.81 7.56,4.26 3,12.8z"/>
        </g>
    </g>
</g>
</svg>